<?xml version="1.0" encoding="UTF-8"?>
<svg version="1.1" viewBox="0 0 120 120" xmlns="http://www.w3.org/2000/svg">
  <g>
    <!-- stroke -->
    <path d="
      m35 0c-19.33 0-35 15.67-35 35v50c0
      19.33 15.67 35 35 35h50c19.33 0 35-15.67
      35-35v-50c0-19.33-15.67-35-35-35h-50z"
      fill="#292612"
    />
    <!-- background -->
    <path d="
      m35 5c-16.569 0-30 13.431-30 30v50c0
      16.569 13.431 30 30 30h50c16.569 0 30-13.431
      30-30v-50c0-16.569-13.431-30-30-30z"
      fill="#E4E0FF"
    />
    <!-- pine -->
    <path d="
      m10.031 18.377c-3.1748 4.7592-5.0312
      10.473-5.0312 16.623v50c0 16.569 13.431 30 30
      30h20l-26.399-43.998c-1.585-2.6417 0.31785-6.0024
      3.3985-6.0024h6c2.8841 0 4.5304-3.2927 2.7999-5.5999z"
      fill="#9DEDAA"
    />
    <!-- position -->
    <path d="
      m90.717 5.5586c-10.98 14.838-20.717
      42-20.717 59.441 0 19.33 15.67 35 35 35 2.1528 0
      4.2573-0.20402 6.3027-0.57617 2.3529-4.2811 3.6973-9.1938
      3.6973-14.424v-5.1602a18 18 0 0 1-10 3.1602 18 18 0 0
      1-18-18 18 18 0 0 1 18-18 18 18 0 0 1 10
      3.0508v-15.051c0-14.612-10.451-26.771-24.283-29.441z"
      fill="#87132A"
    />
  </g>
</svg>
