<?xml version="1.0" encoding="UTF-8"?>
<svg version="1.1" viewBox="0 0 120 120" xmlns="http://www.w3.org/2000/svg">
  <g>
    <path d="
      m21 87h78c3.3137 0 6 2.6863 6 6v4c0 3.3137-2.6863 6-6 6h-78c-3.3137
      0-6-2.6863-6-6v-4c0-3.3137 2.6863-6 6-6z"
    />
    <path d="
      m21 52h78c3.3137 0 6 2.6863 6 6v4c0 3.3137-2.6863 6-6 6h-78c-3.3137
      0-6-2.6863-6-6v-4c0-3.3137 2.6863-6 6-6z"
    />
    <path d="
      m21 17h78c3.3137 0 6 2.6863 6 6v4c0 3.3137-2.6863 6-6 6h-78c-3.3137
      0-6-2.6863-6-6v-4c0-3.3137 2.6863-6 6-6z"
    />
  </g>
</svg>