<?xml version="1.0" encoding="UTF-8" standalone="no"?>

<svg
   width="45"
   height="45"
   version="1.1"
   xmlns="http://www.w3.org/2000/svg"
>
   <path
      d="m 20.544922,5.6152344 c -0.490411,0.0131 -0.988358,0.1817061 -1.425781,0.5371094 L 2.640625,19.541016 C 1.701782,20.303818 1.2324306,21.402048 1.2324219,22.5 c -8.7e-6,1.097952 0.4693601,2.196182 1.4082031,2.958984 L 19.119141,38.847656 C 20.674406,40.1113 23,39.003901 23,37 l -1e-6,-7.999999 C 22.999999,27.895431 23.89543,27 25,27 h 16 c 1.104569,0 1.999999,-0.89543 1.999999,-1.999999 L 43,20 c 10e-7,-1.104569 -0.895431,-2 -2,-2 H 25 c -1.104569,0 -2,-0.895431 -2,-2 L 23,8 C 23,6.5596831 21.798195,5.5817565 20.544922,5.6152344 Z"
   />
</svg>
