<?xml version="1.0" encoding="UTF-8"?>
<svg version="1.1" viewBox="0 0 120 120" xmlns="http://www.w3.org/2000/svg">
  <path d="
    m60 10a30 30 0 0 0-30 30 30 30 0 0 0 30 30 30 30 0 0 0 30-30 30 30 0 0 0-30-30zm0 7a23
    23 0 0 1 23 23 23 23 0 0 1-23 23 23 23 0 0 1-23-23 23 23 0 0 1 23-23zm0 6a17 17 0 0 0-17
    17 17 17 0 0 0 17 17 17 17 0 0 0 17-17 17 17 0 0 0-17-17zm-26.299 41.346c-0.92056 0.021772-1.7394
    0.63589-2.2344 1.8457l-14.27 34.881c-0.43069 1.0469 0.64632 2.0787 1.6738 1.6035l8.0996-3.7402c1.0736-0.49524
    2.3377 0.069199 2.6855 1.1992l2.2969 7.4648c0.34601 1.1219 1.9125 1.1794 2.3398
    0.08594l12.41-31.801c0.66207-1.6965-0.19495-3.5693-1.8359-4.3574-3.282-1.5763-6.2968-3.6549-8.9355-6.1582-0.73712-0.69929-1.5145-1.0404-2.2305-1.0234zm52.598
    0c-0.71599-0.016934-1.4933 0.32415-2.2305 1.0234-2.6388 2.5033-5.6535 4.5819-8.9355
    6.1582-1.641 0.78816-2.498 2.6609-1.8359 4.3574l12.41 31.801c0.42734 1.0935 1.9938 1.0359
    2.3398-0.08594l2.2969-7.4648c0.34788-1.13 1.6119-1.6945 2.6855-1.1992l8.0996 3.7402c1.0275
    0.47519 2.1045-0.55658 1.6738-1.6035l-14.27-34.881c-0.49494-1.2098-1.3138-1.8239-2.2344-1.8457z"
  />
</svg>
