<?xml version="1.0" encoding="UTF-8"?>
<svg version="1.1" viewBox="0 0 120 120" xmlns="http://www.w3.org/2000/svg">
  <path d="
    m46 11c-19.33 0-35 15.67-35 35s15.67 35 35 35c6.0669-0.024929 12.001-1.6259 17.231-4.6168
    1.7869-1.0219 4.3128-0.8394 5.769 0.61682l3 3c0.55228 0.55228 0.55228 1.4477 0 2s-0.55228
    1.4477 0 2l28 28c1.1046 1.1046 2.8954 1.1046 4 0l8-8c1.1046-1.1046 1.1046-2.8954
    0-4l-28-28c-0.55228-0.55228-1.4477-0.55228-2 0s-1.4477 0.55228-2
    0l-3-3c-1.4562-1.4562-1.6387-3.9822-0.61682-5.769 2.9909-5.2301 4.5919-11.164 4.6168-17.231
    0-19.33-15.67-35-35-35zm0 10c13.807 0 25 11.193 25 25s-11.193 25-25 25-25-11.193-25-25
    11.193-25 25-25z"
  />
</svg>
