<?xml version="1.0" encoding="UTF-8" standalone="no"?>

<svg
    viewBox="0 0 75 100"
    version="1.1"
    xmlns="http://www.w3.org/2000/svg"
>
    <path
        d="M 37.5 0 C 36.47976 -0.0062267093 35.459893 0.5146987 34.6875 1.2871094 L 12.300781 23.490234 C 11.117979 24.673065 11.975206 26.666017 13.666016 26.666016 L 18.205078 26.666016 C 19.955573 26.666016 20.880003 28.696922 19.708984 29.970703 L 5.3535156 45.585938 C 4.182497 46.859718 5.1049741 48.888672 6.8554688 48.888672 L 11.396484 48.888672 C 13.285902 48.888672 14.376928 50.986504 13.265625 52.482422 L 0.4453125 69.738281 C -0.66598924 71.234199 0.42698886 73.333984 2.3164062 73.333984 L 15.935547 73.333984 C 18.442854 73.333984 20.863968 75.290183 21.529297 77.65625 C 24.460556 88.080531 30.545248 100 37.5 100 C 44.454785 100 50.53946 88.080565 53.470703 77.65625 C 54.136002 75.290262 56.557149 73.333984 59.064453 73.333984 L 72.683594 73.333984 C 74.573017 73.333984 75.664036 71.234199 74.552734 69.738281 L 61.734375 52.482422 C 60.623077 50.986508 61.714213 48.888676 63.603516 48.888672 L 68.144531 48.888672 C 69.895027 48.888676 70.817503 46.859718 69.646484 45.585938 L 55.291016 29.970703 C 54.119989 28.696924 55.044426 26.666016 56.794922 26.666016 L 61.333984 26.666016 C 63.024794 26.666016 63.887892 24.667409 62.699219 23.490234 L 40.277344 1.2871094 C 39.511732 0.52890115 38.506291 0.0061415679 37.5 0 z M 37.5 55 A 9.5000001 9.5000019 0 0 1 47 64.5 A 9.5000001 9.5000019 0 0 1 37.5 74 A 9.5000001 9.5000019 0 0 1 28 64.5 A 9.5000001 9.5000019 0 0 1 37.5 55 z "
        fill="#99ec8c"
    />
</svg>
