<?xml version="1.0" encoding="UTF-8" standalone="no"?>
<!-- Created with Inkscape (http://www.inkscape.org/) -->

<svg
   width="145"
   height="145"
   viewBox="0 0 38.364584 38.364584"
   version="1.1"
   id="svg944"
   inkscape:version="1.1.1 (3bf5ae0d25, 2021-09-20)"
   sodipodi:docname="forest.svg"
   xmlns:inkscape="http://www.inkscape.org/namespaces/inkscape"
   xmlns:sodipodi="http://sodipodi.sourceforge.net/DTD/sodipodi-0.dtd"
   xmlns="http://www.w3.org/2000/svg"
   xmlns:svg="http://www.w3.org/2000/svg">
  <sodipodi:namedview
     id="namedview946"
     pagecolor="#ffffff"
     bordercolor="#666666"
     borderopacity="1.0"
     inkscape:pageshadow="2"
     inkscape:pageopacity="0.0"
     inkscape:pagecheckerboard="0"
     inkscape:document-units="mm"
     showgrid="false"
     units="px"
     inkscape:showpageshadow="false"
     inkscape:snap-bbox="true"
     inkscape:snap-bbox-midpoints="true"
     showguides="false"
     inkscape:guide-bbox="true"
     inkscape:zoom="0.60221134"
     inkscape:cx="10.793553"
     inkscape:cy="-99.632797"
     inkscape:window-width="1366"
     inkscape:window-height="705"
     inkscape:window-x="-8"
     inkscape:window-y="-8"
     inkscape:window-maximized="1"
     inkscape:current-layer="layer1">
    <inkscape:grid
       type="xygrid"
       id="grid1005" />
    <sodipodi:guide
       position="18.520834,38.364584"
       orientation="1,0"
       id="guide3197" />
  </sodipodi:namedview>
  <defs
     id="defs941" />
  <g
     inkscape:label="Capa 1"
     inkscape:groupmode="layer"
     id="layer1">
    <path
       style="vector-effect:none;fill:#800000;fill-opacity:1;stroke:none;stroke-width:0.264583px;stroke-linecap:butt;stroke-linejoin:miter;stroke-miterlimit:4;stroke-dasharray:none;stroke-dashoffset:0;stroke-opacity:1"
       d="M 8.9040205,-0.79299881 12.446416,-5.1527996 c 0.403656,-0.496799 1.162004,-0.496793 1.565652,1.3e-5 l 3.542261,4.35977479 c 0.334341,0.411503 0.0415,1.026741 -0.488704,1.026741 -0.569631,0 -0.912385,0.631587 -0.601942,1.10919101 l 1.853549,2.851613 c 0.372485,0.573053 -0.03877,1.330862 -0.72224,1.330862 H 8.8633405 c -0.6834719,0 -1.0947239,-0.757809 -0.7222399,-1.330862 l 1.8535489,-2.851613 c 0.3104445,-0.47760401 -0.03231,-1.10919101 -0.601942,-1.10919101 -0.5302,0 -0.8230309,-0.615235 -0.488687,-1.026728 z"
       id="path1213-5-6-1"
       sodipodi:nodetypes="sssssssssssss" />
    <path
       style="vector-effect:none;fill:#800000;fill-opacity:1;stroke:none;stroke-width:0.264583px;stroke-linecap:butt;stroke-linejoin:miter;stroke-miterlimit:4;stroke-dasharray:none;stroke-dashoffset:0;stroke-opacity:1"
       d="m 30.070688,-0.79299881 3.542394,-4.35980079 c 0.403656,-0.496799 1.162004,-0.496793 1.565653,1.3e-5 l 3.54226,4.35977479 c 0.334341,0.411503 0.0415,1.026741 -0.488704,1.026741 -0.569631,0 -0.912385,0.631587 -0.601942,1.10919101 l 1.85355,2.851613 c 0.372485,0.573053 -0.03877,1.330862 -0.722241,1.330862 h -8.73165 c -0.683472,0 -1.094724,-0.757809 -0.72224,-1.330862 l 1.853549,-2.851613 c 0.310443,-0.47760401 -0.03231,-1.10919101 -0.601942,-1.10919101 -0.5302,0 -0.823031,-0.615235 -0.488687,-1.026728 z"
       id="path1213-2-4-1"
       sodipodi:nodetypes="sssssssssssss" />
    <path
       style="vector-effect:none;fill:#800000;fill-opacity:1;stroke:none;stroke-width:0.264583px;stroke-linecap:butt;stroke-linejoin:miter;stroke-miterlimit:4;stroke-dasharray:none;stroke-dashoffset:0;stroke-opacity:1"
       d="m -1.6793128,-0.79299881 3.542394,-4.35980079 c 0.403656,-0.496799 1.162004,-0.496793 1.5656523,1.3e-5 l 3.5422608,4.35977479 c 0.334341,0.411503 0.0415,1.026741 -0.488704,1.026741 -0.5696311,0 -0.9123851,0.631587 -0.6019421,1.10919101 l 1.85355,2.851613 c 0.372485,0.573053 -0.03877,1.330862 -0.7222409,1.330862 h -8.7316501 c -0.683472,0 -1.094724,-0.757809 -0.72224,-1.330862 l 1.85354901,-2.851613 c 0.310443,-0.47760401 -0.03231,-1.10919101 -0.60194201,-1.10919101 -0.5302,0 -0.823031,-0.615235 -0.488687,-1.026728 z"
       id="path1213-8-2"
       sodipodi:nodetypes="sssssssssssss" />
    <path
       style="vector-effect:none;fill:#800000;fill-opacity:1;stroke:none;stroke-width:0.264583px;stroke-linecap:butt;stroke-linejoin:miter;stroke-miterlimit:4;stroke-dasharray:none;stroke-dashoffset:0;stroke-opacity:1"
       d="m 19.487355,-0.79299881 3.542394,-4.35980079 c 0.403656,-0.496799 1.162004,-0.496793 1.565652,1.3e-5 l 3.542261,4.35977479 c 0.334341,0.411503 0.0415,1.026741 -0.488704,1.026741 -0.569631,0 -0.912385,0.631587 -0.601942,1.10919101 l 1.853549,2.851613 c 0.372485,0.573053 -0.03877,1.330862 -0.72224,1.330862 h -8.73165 c -0.683472,0 -1.094724,-0.757809 -0.72224,-1.330862 l 1.853549,-2.851613 c 0.310443,-0.47760401 -0.03231,-1.10919101 -0.601942,-1.10919101 -0.5302,0 -0.823031,-0.615235 -0.488687,-1.026728 z"
       id="path1213-4-2-9"
       sodipodi:nodetypes="sssssssssssss" />
    <path
       style="vector-effect:none;fill:#990000;fill-opacity:1;stroke:none;stroke-width:0.264583px;stroke-linecap:butt;stroke-linejoin:miter;stroke-miterlimit:4;stroke-dasharray:none;stroke-dashoffset:0;stroke-opacity:1"
       d="m 35.362354,3.1757514 3.542394,-4.359801 c 0.403656,-0.496799 1.162004,-0.496793 1.565653,1.3e-5 l 3.54226,4.359775 c 0.334341,0.411503 0.0415,1.026741 -0.488704,1.026741 -0.569631,0 -0.912385,0.631587 -0.601942,1.109191 l 1.85355,2.851613 c 0.372485,0.5730528 -0.03877,1.3308618 -0.722241,1.3308618 h -8.73165 c -0.683472,0 -1.094724,-0.757809 -0.72224,-1.3308618 l 1.853549,-2.851613 c 0.310443,-0.477604 -0.03231,-1.109191 -0.601942,-1.109191 -0.5302,0 -0.823031,-0.615235 -0.488687,-1.026728 z"
       id="path1213-2-9-4"
       sodipodi:nodetypes="sssssssssssss" />
    <path
       style="vector-effect:none;fill:#990000;fill-opacity:1;stroke:none;stroke-width:0.264583px;stroke-linecap:butt;stroke-linejoin:miter;stroke-miterlimit:4;stroke-dasharray:none;stroke-dashoffset:0;stroke-opacity:1"
       d="m -6.9709791,3.1757514 3.5423942,-4.359801 c 0.403656,-0.496799 1.162004,-0.496793 1.565653,1.3e-5 l 3.5422598,4.359775 c 0.334341,0.411503 0.0415,1.026741 -0.488704,1.026741 -0.56963101,0 -0.91238502,0.631587 -0.60194201,1.109191 l 1.85355001,2.851613 c 0.372485,0.5730528 -0.03877,1.3308618 -0.722241,1.3308618 h -8.73165 c -0.683472,0 -1.094724,-0.757809 -0.72224,-1.3308618 l 1.853549,-2.851613 c 0.310443,-0.477604 -0.03231,-1.109191 -0.601942,-1.109191 -0.5302,0 -0.823031,-0.615235 -0.488687,-1.026728 z"
       id="path1213-2-9-7-4"
       sodipodi:nodetypes="sssssssssssss" />
    <path
       style="vector-effect:none;fill:#990000;fill-opacity:1;stroke:none;stroke-width:0.264583px;stroke-linecap:butt;stroke-linejoin:miter;stroke-miterlimit:4;stroke-dasharray:none;stroke-dashoffset:0;stroke-opacity:1"
       d="m 14.195688,3.1757514 3.542395,-4.359801 c 0.403656,-0.496799 1.162004,-0.496793 1.565652,1.3e-5 l 3.542261,4.359775 c 0.334341,0.411503 0.0415,1.026741 -0.488704,1.026741 -0.569631,0 -0.912385,0.631587 -0.601942,1.109191 l 1.853549,2.851613 c 0.372485,0.5730528 -0.03877,1.3308618 -0.72224,1.3308618 h -8.731651 c -0.683472,0 -1.094724,-0.757809 -0.72224,-1.3308618 l 1.853549,-2.851613 c 0.310444,-0.477604 -0.03231,-1.109191 -0.601942,-1.109191 -0.5302,0 -0.823031,-0.615235 -0.488687,-1.026728 z"
       id="path1213-5-3-9"
       sodipodi:nodetypes="sssssssssssss" />
    <path
       style="vector-effect:none;fill:#990000;fill-opacity:1;stroke:none;stroke-width:0.264583px;stroke-linecap:butt;stroke-linejoin:miter;stroke-miterlimit:4;stroke-dasharray:none;stroke-dashoffset:0;stroke-opacity:1"
       d="m 3.612354,3.1757514 3.542394,-4.359801 c 0.4036563,-0.496799 1.1620043,-0.496793 1.5656524,1.3e-5 l 3.5422616,4.359775 c 0.334341,0.411503 0.0415,1.026741 -0.488704,1.026741 -0.569631,0 -0.912385,0.631587 -0.601942,1.109191 l 1.85355,2.851613 c 0.372485,0.5730528 -0.03877,1.3308618 -0.722241,1.3308618 H 3.571674 c -0.683472,0 -1.094724,-0.757809 -0.72224,-1.3308618 l 1.853549,-2.851613 c 0.310443,-0.477604 -0.03231,-1.109191 -0.601942,-1.109191 -0.5302,0 -0.823031,-0.615235 -0.488687,-1.026728 z"
       id="path1213-1-8"
       sodipodi:nodetypes="sssssssssssss" />
    <path
       style="vector-effect:none;fill:#990000;fill-opacity:1;stroke:none;stroke-width:0.264583px;stroke-linecap:butt;stroke-linejoin:miter;stroke-miterlimit:4;stroke-dasharray:none;stroke-dashoffset:0;stroke-opacity:1"
       d="m 24.779022,3.1757514 3.542394,-4.359801 c 0.403656,-0.496799 1.162004,-0.496793 1.565652,1.3e-5 l 3.542261,4.359775 c 0.334341,0.411503 0.0415,1.026741 -0.488704,1.026741 -0.569631,0 -0.912385,0.631587 -0.601942,1.109191 l 1.853549,2.851613 c 0.372485,0.5730528 -0.03877,1.3308618 -0.72224,1.3308618 h -8.73165 c -0.683472,0 -1.094724,-0.757809 -0.72224,-1.3308618 l 1.853549,-2.851613 c 0.310443,-0.477604 -0.03231,-1.109191 -0.601942,-1.109191 -0.5302,0 -0.823031,-0.615235 -0.488687,-1.026728 z"
       id="path1213-4-4-5"
       sodipodi:nodetypes="sssssssssssss" />
    <path
       style="vector-effect:none;fill:#b20000;fill-opacity:1;stroke:none;stroke-width:0.264583px;stroke-linecap:butt;stroke-linejoin:miter;stroke-miterlimit:4;stroke-dasharray:none;stroke-dashoffset:0;stroke-opacity:1"
       d="m 30.070688,7.1445021 3.542394,-4.359801 c 0.403656,-0.496799 1.162004,-0.496793 1.565653,1.3e-5 l 3.54226,4.359775 c 0.334341,0.4115028 0.0415,1.0267408 -0.488704,1.0267408 -0.569631,0 -0.912385,0.631587 -0.601942,1.109191 l 1.85355,2.8516131 c 0.372485,0.573053 -0.03877,1.330862 -0.722241,1.330862 h -8.73165 c -0.683472,0 -1.094724,-0.757809 -0.72224,-1.330862 l 1.853549,-2.8516131 c 0.310443,-0.477604 -0.03231,-1.109191 -0.601942,-1.109191 -0.5302,0 -0.823031,-0.615235 -0.488687,-1.0267278 z"
       id="path1213-2-4"
       sodipodi:nodetypes="sssssssssssss" />
    <path
       style="vector-effect:none;fill:#b20000;fill-opacity:1;stroke:none;stroke-width:0.264583px;stroke-linecap:butt;stroke-linejoin:miter;stroke-miterlimit:4;stroke-dasharray:none;stroke-dashoffset:0;stroke-opacity:1"
       d="m 8.9040207,7.1445016 3.5423953,-4.359801 c 0.403656,-0.496799 1.162004,-0.496793 1.565652,1.3e-5 l 3.542261,4.359775 c 0.334341,0.4115033 0.0415,1.0267413 -0.488704,1.0267413 -0.569631,0 -0.912385,0.631587 -0.601942,1.109191 l 1.853549,2.8516131 c 0.372485,0.573053 -0.03877,1.330862 -0.72224,1.330862 H 8.8633407 c -0.6834719,0 -1.0947239,-0.757809 -0.7222399,-1.330862 L 9.9946497,9.2804209 c 0.3104443,-0.477604 -0.03231,-1.109191 -0.601942,-1.109191 -0.5302,0 -0.8230309,-0.615235 -0.488687,-1.0267283 z"
       id="path1213-5-6"
       sodipodi:nodetypes="sssssssssssss" />
    <path
       style="vector-effect:none;fill:#b20000;fill-opacity:1;stroke:none;stroke-width:0.264583px;stroke-linecap:butt;stroke-linejoin:miter;stroke-miterlimit:4;stroke-dasharray:none;stroke-dashoffset:0;stroke-opacity:1"
       d="m -1.6793126,7.1445021 3.542394,-4.359801 c 0.403656,-0.496799 1.162004,-0.496793 1.5656523,1.3e-5 l 3.5422608,4.359775 c 0.334341,0.4115028 0.0415,1.0267408 -0.488704,1.0267408 -0.5696311,0 -0.9123851,0.631587 -0.6019421,1.109191 l 1.85355,2.8516131 c 0.372485,0.573053 -0.03877,1.330862 -0.7222409,1.330862 h -8.7316501 c -0.683472,0 -1.094724,-0.757809 -0.72224,-1.330862 l 1.85354895,-2.8516131 c 0.310443,-0.477604 -0.03231,-1.109191 -0.60194195,-1.109191 -0.5302,0 -0.823031,-0.615235 -0.488687,-1.0267278 z"
       id="path1213-8"
       sodipodi:nodetypes="sssssssssssss" />
    <path
       style="vector-effect:none;fill:#b20000;fill-opacity:1;stroke:none;stroke-width:0.264583px;stroke-linecap:butt;stroke-linejoin:miter;stroke-miterlimit:4;stroke-dasharray:none;stroke-dashoffset:0;stroke-opacity:1"
       d="m 19.487355,7.1445021 3.542394,-4.359801 c 0.403656,-0.496799 1.162004,-0.496793 1.565652,1.3e-5 l 3.542261,4.359775 c 0.334341,0.4115028 0.0415,1.0267408 -0.488704,1.0267408 -0.569631,0 -0.912385,0.631587 -0.601942,1.109191 l 1.853549,2.8516131 c 0.372485,0.573053 -0.03877,1.330862 -0.72224,1.330862 h -8.73165 c -0.683472,0 -1.094724,-0.757809 -0.72224,-1.330862 l 1.853549,-2.8516131 c 0.310443,-0.477604 -0.03231,-1.109191 -0.601942,-1.109191 -0.5302,0 -0.823031,-0.615235 -0.488687,-1.0267278 z"
       id="path1213-4-2"
       sodipodi:nodetypes="sssssssssssss" />
    <path
       style="vector-effect:none;fill:#cc0000;fill-opacity:1;stroke:none;stroke-width:0.264583px;stroke-linecap:butt;stroke-linejoin:miter;stroke-miterlimit:4;stroke-dasharray:none;stroke-dashoffset:0;stroke-opacity:1"
       d="m 35.362354,11.113251 3.542394,-4.3598009 c 0.403656,-0.496799 1.162004,-0.496793 1.565653,1.3e-5 l 3.54226,4.3597749 c 0.334341,0.411503 0.0415,1.026741 -0.488704,1.026741 -0.569631,0 -0.912385,0.631587 -0.601942,1.109191 l 1.85355,2.851613 c 0.372485,0.573053 -0.03877,1.330862 -0.722241,1.330862 h -8.73165 c -0.683472,0 -1.094724,-0.757809 -0.72224,-1.330862 l 1.853549,-2.851613 c 0.310443,-0.477604 -0.03231,-1.109191 -0.601942,-1.109191 -0.5302,0 -0.823031,-0.615235 -0.488687,-1.026728 z"
       id="path1213-2-9"
       sodipodi:nodetypes="sssssssssssss" />
    <path
       style="vector-effect:none;fill:#cc0000;fill-opacity:1;stroke:none;stroke-width:0.264583px;stroke-linecap:butt;stroke-linejoin:miter;stroke-miterlimit:4;stroke-dasharray:none;stroke-dashoffset:0;stroke-opacity:1"
       d="m -6.9709797,11.113251 3.5423942,-4.3598009 c 0.403656,-0.496799 1.162004,-0.496793 1.565653,1.3e-5 l 3.5422598,4.3597749 c 0.334341,0.411503 0.0415,1.026741 -0.488704,1.026741 -0.56963104,0 -0.91238504,0.631587 -0.60194204,1.109191 l 1.85355004,2.851613 c 0.372485,0.573053 -0.03877,1.330862 -0.722241,1.330862 h -8.73165 c -0.683472,0 -1.094724,-0.757809 -0.72224,-1.330862 l 1.853549,-2.851613 c 0.310443,-0.477604 -0.03231,-1.109191 -0.601942,-1.109191 -0.5302,0 -0.823031,-0.615235 -0.488687,-1.026728 z"
       id="path1213-2-9-7"
       sodipodi:nodetypes="sssssssssssss" />
    <path
       style="vector-effect:none;fill:#cc0000;fill-opacity:1;stroke:none;stroke-width:0.264583px;stroke-linecap:butt;stroke-linejoin:miter;stroke-miterlimit:4;stroke-dasharray:none;stroke-dashoffset:0;stroke-opacity:1"
       d="m 14.195688,11.113251 3.542395,-4.3598009 c 0.403656,-0.496799 1.162004,-0.496793 1.565652,1.3e-5 l 3.542261,4.3597749 c 0.334341,0.411503 0.0415,1.026741 -0.488704,1.026741 -0.569631,0 -0.912385,0.631587 -0.601942,1.109191 l 1.853549,2.851613 c 0.372485,0.573053 -0.03877,1.330862 -0.72224,1.330862 h -8.731651 c -0.683472,0 -1.094724,-0.757809 -0.72224,-1.330862 l 1.853549,-2.851613 c 0.310444,-0.477604 -0.03231,-1.109191 -0.601942,-1.109191 -0.5302,0 -0.823031,-0.615235 -0.488687,-1.026728 z"
       id="path1213-5-3"
       sodipodi:nodetypes="sssssssssssss" />
    <path
       style="vector-effect:none;fill:#cc0000;fill-opacity:1;stroke:none;stroke-width:0.264583px;stroke-linecap:butt;stroke-linejoin:miter;stroke-miterlimit:4;stroke-dasharray:none;stroke-dashoffset:0;stroke-opacity:1"
       d="m 3.6123534,11.113251 3.542394,-4.3598009 c 0.4036563,-0.496799 1.1620043,-0.496793 1.5656524,1.3e-5 l 3.5422622,4.3597749 c 0.334341,0.411503 0.0415,1.026741 -0.488704,1.026741 -0.569631,0 -0.912385,0.631587 -0.601942,1.109191 l 1.85355,2.851613 c 0.372485,0.573053 -0.03877,1.330862 -0.722241,1.330862 H 3.5716734 c -0.683472,0 -1.094724,-0.757809 -0.72224,-1.330862 l 1.853549,-2.851613 c 0.310443,-0.477604 -0.03231,-1.109191 -0.601942,-1.109191 -0.5302,0 -0.823031,-0.615235 -0.488687,-1.026728 z"
       id="path1213-1"
       sodipodi:nodetypes="sssssssssssss" />
    <path
       style="vector-effect:none;fill:#cc0000;fill-opacity:1;stroke:none;stroke-width:0.264583px;stroke-linecap:butt;stroke-linejoin:miter;stroke-miterlimit:4;stroke-dasharray:none;stroke-dashoffset:0;stroke-opacity:1"
       d="m 24.779022,11.113251 3.542394,-4.3598009 c 0.403656,-0.496799 1.162004,-0.496793 1.565652,1.3e-5 l 3.542261,4.3597749 c 0.334341,0.411503 0.0415,1.026741 -0.488704,1.026741 -0.569631,0 -0.912385,0.631587 -0.601942,1.109191 l 1.853549,2.851613 c 0.372485,0.573053 -0.03877,1.330862 -0.72224,1.330862 h -8.73165 c -0.683472,0 -1.094724,-0.757809 -0.72224,-1.330862 l 1.853549,-2.851613 c 0.310443,-0.477604 -0.03231,-1.109191 -0.601942,-1.109191 -0.5302,0 -0.823031,-0.615235 -0.488687,-1.026728 z"
       id="path1213-4-4"
       sodipodi:nodetypes="sssssssssssss" />
    <path
       style="vector-effect:none;fill:#e50000;fill-opacity:1;stroke:none;stroke-width:0.264583px;stroke-linecap:butt;stroke-linejoin:miter;stroke-miterlimit:4;stroke-dasharray:none;stroke-dashoffset:0;stroke-opacity:1"
       d="m 30.070688,16.404918 3.542394,-4.359801 c 0.403656,-0.496799 1.162004,-0.496793 1.565653,1.3e-5 l 3.54226,4.359775 c 0.334341,0.411503 0.0415,1.026741 -0.488704,1.026741 -0.569631,0 -0.912385,0.631587 -0.601942,1.109191 l 1.85355,2.851613 c 0.372485,0.573053 -0.03877,1.330862 -0.722241,1.330862 h -8.73165 c -0.683472,0 -1.094724,-0.757809 -0.72224,-1.330862 l 1.853549,-2.851613 c 0.310443,-0.477604 -0.03231,-1.109191 -0.601942,-1.109191 -0.5302,0 -0.823031,-0.615235 -0.488687,-1.026728 z"
       id="path1213-2"
       sodipodi:nodetypes="sssssssssssss" />
    <path
       style="vector-effect:none;fill:#e50000;fill-opacity:1;stroke:none;stroke-width:0.264583px;stroke-linecap:butt;stroke-linejoin:miter;stroke-miterlimit:4;stroke-dasharray:none;stroke-dashoffset:0;stroke-opacity:1"
       d="m 8.9040207,16.404918 3.5423953,-4.359801 c 0.403656,-0.496799 1.162004,-0.496793 1.565652,1.3e-5 l 3.542261,4.359775 c 0.334341,0.411503 0.0415,1.026741 -0.488704,1.026741 -0.569631,0 -0.912385,0.631587 -0.601942,1.109191 l 1.853549,2.851613 c 0.372485,0.573053 -0.03877,1.330862 -0.72224,1.330862 H 8.8633407 c -0.6834717,0 -1.0947237,-0.757809 -0.7222397,-1.330862 l 1.8535487,-2.851613 c 0.3104443,-0.477604 -0.03231,-1.109191 -0.601942,-1.109191 -0.5302,0 -0.8230307,-0.615235 -0.488687,-1.026728 z"
       id="path1213-5"
       sodipodi:nodetypes="sssssssssssss" />
    <path
       style="vector-effect:none;fill:#e50000;fill-opacity:1;stroke:none;stroke-width:0.264583px;stroke-linecap:butt;stroke-linejoin:miter;stroke-miterlimit:4;stroke-dasharray:none;stroke-dashoffset:0;stroke-opacity:1"
       d="m -1.6793118,16.404918 3.5423941,-4.359801 c 0.403656,-0.496799 1.162004,-0.496793 1.5656523,1.3e-5 l 3.5422607,4.359775 c 0.334341,0.411503 0.0415,1.026741 -0.488704,1.026741 -0.569631,0 -0.912385,0.631587 -0.601942,1.109191 L 7.733899,21.39245 c 0.372485,0.573053 -0.03877,1.330862 -0.7222407,1.330862 h -8.7316501 c -0.6834719,0 -1.0947239,-0.757809 -0.7222399,-1.330862 l 1.85354898,-2.851613 c 0.31044299,-0.477604 -0.03231,-1.109191 -0.60194198,-1.109191 -0.5302001,0 -0.8230311,-0.615235 -0.4886871,-1.026728 z"
       id="path1213"
       sodipodi:nodetypes="sssssssssssss" />
    <path
       style="vector-effect:none;fill:#e50000;fill-opacity:1;stroke:none;stroke-width:0.264583px;stroke-linecap:butt;stroke-linejoin:miter;stroke-miterlimit:4;stroke-dasharray:none;stroke-dashoffset:0;stroke-opacity:1"
       d="m 19.487355,16.404918 3.542394,-4.359801 c 0.403656,-0.496799 1.162004,-0.496793 1.565652,1.3e-5 l 3.542261,4.359775 c 0.334341,0.411503 0.0415,1.026741 -0.488704,1.026741 -0.569631,0 -0.912385,0.631587 -0.601942,1.109191 l 1.853549,2.851613 c 0.372485,0.573053 -0.03877,1.330862 -0.72224,1.330862 h -8.73165 c -0.683472,0 -1.094724,-0.757809 -0.72224,-1.330862 l 1.853549,-2.851613 c 0.310443,-0.477604 -0.03231,-1.109191 -0.601942,-1.109191 -0.5302,0 -0.823031,-0.615235 -0.488687,-1.026728 z"
       id="path1213-4"
       sodipodi:nodetypes="sssssssssssss" />
    <path
       style="vector-effect:none;fill:#ff0000;fill-opacity:1;stroke:none;stroke-width:0.264583px;stroke-linecap:butt;stroke-linejoin:miter;stroke-miterlimit:4;stroke-dasharray:none;stroke-dashoffset:0;stroke-opacity:1"
       d="m 35.362354,20.373667 3.542394,-4.359801 c 0.403656,-0.496799 1.162004,-0.496793 1.565653,1.3e-5 l 3.54226,4.359775 c 0.334341,0.411503 0.0415,1.026741 -0.488704,1.026741 -0.569631,0 -0.912385,0.631587 -0.601942,1.109191 l 1.85355,2.851613 c 0.372485,0.573053 -0.03877,1.330862 -0.722241,1.330862 h -8.73165 c -0.683472,0 -1.094724,-0.757809 -0.72224,-1.330862 l 1.853549,-2.851613 c 0.310443,-0.477604 -0.03231,-1.109191 -0.601942,-1.109191 -0.5302,0 -0.823031,-0.615235 -0.488687,-1.026728 z"
       id="path1213-2-9-72"
       sodipodi:nodetypes="sssssssssssss" />
    <path
       style="vector-effect:none;fill:#ff0000;fill-opacity:1;stroke:none;stroke-width:0.264583px;stroke-linecap:butt;stroke-linejoin:miter;stroke-miterlimit:4;stroke-dasharray:none;stroke-dashoffset:0;stroke-opacity:1"
       d="m -6.9709794,20.373667 3.542394,-4.359801 c 0.403656,-0.496799 1.162004,-0.496793 1.565653,1.3e-5 l 3.54226,4.359775 c 0.334341,0.411503 0.0415,1.026741 -0.488704,1.026741 -0.56963096,0 -0.91238496,0.631587 -0.60194196,1.109191 l 1.85354996,2.851613 c 0.372485,0.573053 -0.03877,1.330862 -0.722241,1.330862 h -8.73165 c -0.683472,0 -1.094724,-0.757809 -0.72224,-1.330862 l 1.853549,-2.851613 c 0.310443,-0.477604 -0.03231,-1.109191 -0.601942,-1.109191 -0.5302,0 -0.823031,-0.615235 -0.488687,-1.026728 z"
       id="path1213-2-9-7-6"
       sodipodi:nodetypes="sssssssssssss" />
    <path
       style="vector-effect:none;fill:#ff0000;fill-opacity:1;stroke:none;stroke-width:0.264583px;stroke-linecap:butt;stroke-linejoin:miter;stroke-miterlimit:4;stroke-dasharray:none;stroke-dashoffset:0;stroke-opacity:1"
       d="m 14.195688,20.373667 3.542395,-4.359801 c 0.403656,-0.496799 1.162004,-0.496793 1.565652,1.3e-5 l 3.542261,4.359775 c 0.334341,0.411503 0.0415,1.026741 -0.488704,1.026741 -0.569631,0 -0.912385,0.631587 -0.601942,1.109191 l 1.853549,2.851613 c 0.372485,0.573053 -0.03877,1.330862 -0.72224,1.330862 h -8.731651 c -0.683472,0 -1.094724,-0.757809 -0.72224,-1.330862 l 1.853549,-2.851613 c 0.310444,-0.477604 -0.03231,-1.109191 -0.601942,-1.109191 -0.5302,0 -0.823031,-0.615235 -0.488687,-1.026728 z"
       id="path1213-5-3-5"
       sodipodi:nodetypes="sssssssssssss" />
    <path
       style="vector-effect:none;fill:#ff0000;fill-opacity:1;stroke:none;stroke-width:0.264583px;stroke-linecap:butt;stroke-linejoin:miter;stroke-miterlimit:4;stroke-dasharray:none;stroke-dashoffset:0;stroke-opacity:1"
       d="m 3.6123536,20.373667 3.542394,-4.359801 c 0.403656,-0.496799 1.162004,-0.496793 1.565652,1.3e-5 l 3.5422624,4.359775 c 0.334341,0.411503 0.0415,1.026741 -0.488704,1.026741 -0.569631,0 -0.912385,0.631587 -0.601942,1.109191 l 1.85355,2.851613 c 0.372485,0.573053 -0.03877,1.330862 -0.722241,1.330862 H 3.5716736 c -0.683472,0 -1.094724,-0.757809 -0.72224,-1.330862 l 1.853549,-2.851613 c 0.310443,-0.477604 -0.03231,-1.109191 -0.601942,-1.109191 -0.5302,0 -0.823031,-0.615235 -0.488687,-1.026728 z"
       id="path1213-1-1"
       sodipodi:nodetypes="sssssssssssss" />
    <path
       style="vector-effect:none;fill:#ff0000;fill-opacity:1;stroke:none;stroke-width:0.264583px;stroke-linecap:butt;stroke-linejoin:miter;stroke-miterlimit:4;stroke-dasharray:none;stroke-dashoffset:0;stroke-opacity:1"
       d="m 24.779022,20.373667 3.542394,-4.359801 c 0.403656,-0.496799 1.162004,-0.496793 1.565652,1.3e-5 l 3.542261,4.359775 c 0.334341,0.411503 0.0415,1.026741 -0.488704,1.026741 -0.569631,0 -0.912385,0.631587 -0.601942,1.109191 l 1.853549,2.851613 c 0.372485,0.573053 -0.03877,1.330862 -0.72224,1.330862 h -8.73165 c -0.683472,0 -1.094724,-0.757809 -0.72224,-1.330862 l 1.853549,-2.851613 c 0.310443,-0.477604 -0.03231,-1.109191 -0.601942,-1.109191 -0.5302,0 -0.823031,-0.615235 -0.488687,-1.026728 z"
       id="path1213-4-4-1"
       sodipodi:nodetypes="sssssssssssss" />
    <path
       style="vector-effect:none;fill:#ff1a1a;fill-opacity:1;stroke:none;stroke-width:0.264583px;stroke-linecap:butt;stroke-linejoin:miter;stroke-miterlimit:4;stroke-dasharray:none;stroke-dashoffset:0;stroke-opacity:1"
       d="m 30.070688,24.342418 3.542394,-4.359801 c 0.403656,-0.496799 1.162004,-0.496793 1.565653,1.3e-5 l 3.54226,4.359775 c 0.334341,0.411503 0.0415,1.026741 -0.488704,1.026741 -0.569631,0 -0.912385,0.631587 -0.601942,1.109191 l 1.85355,2.851613 c 0.372485,0.573053 -0.03877,1.330862 -0.722241,1.330862 h -8.73165 c -0.683472,0 -1.094724,-0.757809 -0.72224,-1.330862 l 1.853549,-2.851613 c 0.310443,-0.477604 -0.03231,-1.109191 -0.601942,-1.109191 -0.5302,0 -0.823031,-0.615235 -0.488687,-1.026728 z"
       id="path1213-2-5"
       sodipodi:nodetypes="sssssssssssss" />
    <path
       style="vector-effect:none;fill:#ff1a1a;fill-opacity:1;stroke:none;stroke-width:0.264583px;stroke-linecap:butt;stroke-linejoin:miter;stroke-miterlimit:4;stroke-dasharray:none;stroke-dashoffset:0;stroke-opacity:1"
       d="m 8.9040208,24.342418 3.5423952,-4.359801 c 0.403656,-0.496799 1.162004,-0.496793 1.565652,1.3e-5 l 3.542261,4.359775 c 0.334341,0.411503 0.0415,1.026741 -0.488704,1.026741 -0.569631,0 -0.912385,0.631587 -0.601942,1.109191 l 1.853549,2.851613 c 0.372485,0.573053 -0.03877,1.330862 -0.72224,1.330862 H 8.8633408 c -0.683472,0 -1.094724,-0.757809 -0.72224,-1.330862 l 1.853549,-2.851613 c 0.3104442,-0.477604 -0.03231,-1.109191 -0.601942,-1.109191 -0.5302,0 -0.823031,-0.615235 -0.488687,-1.026728 z"
       id="path1213-5-8"
       sodipodi:nodetypes="sssssssssssss" />
    <path
       style="vector-effect:none;fill:#ff1a1a;fill-opacity:1;stroke:none;stroke-width:0.264583px;stroke-linecap:butt;stroke-linejoin:miter;stroke-miterlimit:4;stroke-dasharray:none;stroke-dashoffset:0;stroke-opacity:1"
       d="m -1.6793122,24.342418 3.542394,-4.359801 c 0.403656,-0.496799 1.162004,-0.496793 1.565653,1.3e-5 l 3.54226,4.359775 c 0.334341,0.411503 0.0415,1.026741 -0.488704,1.026741 -0.569631,0 -0.912385,0.631587 -0.601942,1.109191 l 1.85355,2.851613 c 0.372485,0.573053 -0.03877,1.330862 -0.722241,1.330862 h -8.73165 c -0.683472,0 -1.094724,-0.757809 -0.72224,-1.330862 l 1.85354902,-2.851613 c 0.310443,-0.477604 -0.03231,-1.109191 -0.60194202,-1.109191 -0.5302,0 -0.823031,-0.615235 -0.488687,-1.026728 z"
       id="path1213-25"
       sodipodi:nodetypes="sssssssssssss" />
    <path
       style="vector-effect:none;fill:#ff1a1a;fill-opacity:1;stroke:none;stroke-width:0.264583px;stroke-linecap:butt;stroke-linejoin:miter;stroke-miterlimit:4;stroke-dasharray:none;stroke-dashoffset:0;stroke-opacity:1"
       d="m 19.487355,24.342418 3.542394,-4.359801 c 0.403656,-0.496799 1.162004,-0.496793 1.565652,1.3e-5 l 3.542261,4.359775 c 0.334341,0.411503 0.0415,1.026741 -0.488704,1.026741 -0.569631,0 -0.912385,0.631587 -0.601942,1.109191 l 1.853549,2.851613 c 0.372485,0.573053 -0.03877,1.330862 -0.72224,1.330862 h -8.73165 c -0.683472,0 -1.094724,-0.757809 -0.72224,-1.330862 l 1.853549,-2.851613 c 0.310443,-0.477604 -0.03231,-1.109191 -0.601942,-1.109191 -0.5302,0 -0.823031,-0.615235 -0.488687,-1.026728 z"
       id="path1213-4-6"
       sodipodi:nodetypes="sssssssssssss" />
    <path
       style="vector-effect:none;fill:#ff3333;fill-opacity:1;stroke:none;stroke-width:0.264583px;stroke-linecap:butt;stroke-linejoin:miter;stroke-miterlimit:4;stroke-dasharray:none;stroke-dashoffset:0;stroke-opacity:1"
       d="m 35.362354,28.311168 3.542394,-4.359801 c 0.403656,-0.496799 1.162004,-0.496793 1.565653,1.3e-5 l 3.54226,4.359775 c 0.334341,0.411503 0.0415,1.026741 -0.488704,1.026741 -0.569631,0 -0.912385,0.631587 -0.601942,1.109191 l 1.85355,2.851613 c 0.372485,0.573053 -0.03877,1.330862 -0.722241,1.330862 h -8.73165 c -0.683472,0 -1.094724,-0.757809 -0.72224,-1.330862 l 1.853549,-2.851613 c 0.310443,-0.477604 -0.03231,-1.109191 -0.601942,-1.109191 -0.5302,0 -0.823031,-0.615235 -0.488687,-1.026728 z"
       id="path1213-2-9-72-9"
       sodipodi:nodetypes="sssssssssssss" />
    <path
       style="vector-effect:none;fill:#ff3333;fill-opacity:1;stroke:none;stroke-width:0.264583px;stroke-linecap:butt;stroke-linejoin:miter;stroke-miterlimit:4;stroke-dasharray:none;stroke-dashoffset:0;stroke-opacity:1"
       d="m -6.9709794,28.311168 3.542394,-4.359801 c 0.403656,-0.496799 1.162004,-0.496793 1.565653,1.3e-5 l 3.5422599,4.359775 c 0.334341,0.411503 0.0415,1.026741 -0.488704,1.026741 -0.56963101,0 -0.91238501,0.631587 -0.60194201,1.109191 L 2.4422315,33.2987 c 0.372485,0.573053 -0.03877,1.330862 -0.722241,1.330862 h -8.7316499 c -0.683472,0 -1.094724,-0.757809 -0.72224,-1.330862 l 1.853549,-2.851613 c 0.310443,-0.477604 -0.03231,-1.109191 -0.601942,-1.109191 -0.5302,0 -0.823031,-0.615235 -0.488687,-1.026728 z"
       id="path1213-2-9-7-6-0"
       sodipodi:nodetypes="sssssssssssss" />
    <path
       style="vector-effect:none;fill:#ff3333;fill-opacity:1;stroke:none;stroke-width:0.264583px;stroke-linecap:butt;stroke-linejoin:miter;stroke-miterlimit:4;stroke-dasharray:none;stroke-dashoffset:0;stroke-opacity:1"
       d="m 14.195688,28.311168 3.542395,-4.359801 c 0.403656,-0.496799 1.162004,-0.496793 1.565652,1.3e-5 l 3.542261,4.359775 c 0.334341,0.411503 0.0415,1.026741 -0.488704,1.026741 -0.569631,0 -0.912385,0.631587 -0.601942,1.109191 l 1.853549,2.851613 c 0.372485,0.573053 -0.03877,1.330862 -0.72224,1.330862 h -8.731651 c -0.683472,0 -1.094724,-0.757809 -0.72224,-1.330862 l 1.853549,-2.851613 c 0.310444,-0.477604 -0.03231,-1.109191 -0.601942,-1.109191 -0.5302,0 -0.823031,-0.615235 -0.488687,-1.026728 z"
       id="path1213-5-3-5-2"
       sodipodi:nodetypes="sssssssssssss" />
    <path
       style="vector-effect:none;fill:#ff3333;fill-opacity:1;stroke:none;stroke-width:0.264583px;stroke-linecap:butt;stroke-linejoin:miter;stroke-miterlimit:4;stroke-dasharray:none;stroke-dashoffset:0;stroke-opacity:1"
       d="m 3.6123535,28.311168 3.542394,-4.359801 c 0.403656,-0.496799 1.162004,-0.496793 1.5656516,1.3e-5 l 3.5422629,4.359775 c 0.334341,0.411503 0.0415,1.026741 -0.488704,1.026741 -0.569631,0 -0.912385,0.631587 -0.601942,1.109191 l 1.85355,2.851613 c 0.372485,0.573053 -0.03877,1.330862 -0.722241,1.330862 H 3.5716735 c -0.683472,0 -1.094724,-0.757809 -0.72224,-1.330862 l 1.853549,-2.851613 c 0.310443,-0.477604 -0.03231,-1.109191 -0.601942,-1.109191 -0.5302,0 -0.823031,-0.615235 -0.488687,-1.026728 z"
       id="path1213-1-1-6"
       sodipodi:nodetypes="sssssssssssss" />
    <path
       style="vector-effect:none;fill:#ff3333;fill-opacity:1;stroke:none;stroke-width:0.264583px;stroke-linecap:butt;stroke-linejoin:miter;stroke-miterlimit:4;stroke-dasharray:none;stroke-dashoffset:0;stroke-opacity:1"
       d="m 24.779022,28.311168 3.542394,-4.359801 c 0.403656,-0.496799 1.162004,-0.496793 1.565652,1.3e-5 l 3.542261,4.359775 c 0.334341,0.411503 0.0415,1.026741 -0.488704,1.026741 -0.569631,0 -0.912385,0.631587 -0.601942,1.109191 l 1.853549,2.851613 c 0.372485,0.573053 -0.03877,1.330862 -0.72224,1.330862 h -8.73165 c -0.683472,0 -1.094724,-0.757809 -0.72224,-1.330862 l 1.853549,-2.851613 c 0.310443,-0.477604 -0.03231,-1.109191 -0.601942,-1.109191 -0.5302,0 -0.823031,-0.615235 -0.488687,-1.026728 z"
       id="path1213-4-4-1-8"
       sodipodi:nodetypes="sssssssssssss" />
    <path
       style="vector-effect:none;fill:#ff4d4d;fill-opacity:1;stroke:none;stroke-width:0.264583px;stroke-linecap:butt;stroke-linejoin:miter;stroke-miterlimit:4;stroke-dasharray:none;stroke-dashoffset:0;stroke-opacity:1"
       d="m 30.070688,32.279918 3.542394,-4.359801 c 0.403656,-0.496799 1.162004,-0.496793 1.565653,1.3e-5 l 3.54226,4.359775 c 0.334341,0.411503 0.0415,1.026741 -0.488704,1.026741 -0.569631,0 -0.912385,0.631587 -0.601942,1.109191 l 1.85355,2.851613 c 0.372485,0.573053 -0.03877,1.330862 -0.722241,1.330862 h -8.73165 c -0.683472,0 -1.094724,-0.757809 -0.72224,-1.330862 l 1.853549,-2.851613 c 0.310443,-0.477604 -0.03231,-1.109191 -0.601942,-1.109191 -0.5302,0 -0.823031,-0.615235 -0.488687,-1.026728 z"
       id="path1213-2-5-6"
       sodipodi:nodetypes="sssssssssssss" />
    <path
       style="vector-effect:none;fill:#ff4d4d;fill-opacity:1;stroke:none;stroke-width:0.264583px;stroke-linecap:butt;stroke-linejoin:miter;stroke-miterlimit:4;stroke-dasharray:none;stroke-dashoffset:0;stroke-opacity:1"
       d="m 8.9040208,32.279918 3.5423952,-4.359801 c 0.403656,-0.496799 1.162004,-0.496793 1.565652,1.3e-5 l 3.542261,4.359775 c 0.334341,0.411503 0.0415,1.026741 -0.488704,1.026741 -0.569631,0 -0.912385,0.631587 -0.601942,1.109191 l 1.853549,2.851613 c 0.372485,0.573053 -0.03877,1.330862 -0.72224,1.330862 H 8.8633408 c -0.683472,0 -1.094724,-0.757809 -0.72224,-1.330862 l 1.853549,-2.851613 c 0.3104442,-0.477604 -0.03231,-1.109191 -0.601942,-1.109191 -0.5302,0 -0.823031,-0.615235 -0.488687,-1.026728 z"
       id="path1213-5-8-2"
       sodipodi:nodetypes="sssssssssssss" />
    <path
       style="vector-effect:none;fill:#ff4d4d;fill-opacity:1;stroke:none;stroke-width:0.264583px;stroke-linecap:butt;stroke-linejoin:miter;stroke-miterlimit:4;stroke-dasharray:none;stroke-dashoffset:0;stroke-opacity:1"
       d="m -1.6793122,32.279918 3.542394,-4.359801 c 0.403656,-0.496799 1.162004,-0.496793 1.565653,1.3e-5 l 3.54226,4.359775 c 0.334341,0.411503 0.0415,1.026741 -0.488704,1.026741 -0.569631,0 -0.912385,0.631587 -0.601942,1.109191 l 1.85355,2.851613 c 0.372485,0.573053 -0.03877,1.330862 -0.722241,1.330862 h -8.73165 c -0.683472,0 -1.094724,-0.757809 -0.72224,-1.330862 l 1.85354901,-2.851613 c 0.310443,-0.477604 -0.03231,-1.109191 -0.60194201,-1.109191 -0.5302,0 -0.823031,-0.615235 -0.488687,-1.026728 z"
       id="path1213-25-3"
       sodipodi:nodetypes="sssssssssssss" />
    <path
       style="vector-effect:none;fill:#ff4d4d;fill-opacity:1;stroke:none;stroke-width:0.264583px;stroke-linecap:butt;stroke-linejoin:miter;stroke-miterlimit:4;stroke-dasharray:none;stroke-dashoffset:0;stroke-opacity:1"
       d="m 19.487355,32.279918 3.542394,-4.359801 c 0.403656,-0.496799 1.162004,-0.496793 1.565652,1.3e-5 l 3.542261,4.359775 c 0.334341,0.411503 0.0415,1.026741 -0.488704,1.026741 -0.569631,0 -0.912385,0.631587 -0.601942,1.109191 l 1.853549,2.851613 c 0.372485,0.573053 -0.03877,1.330862 -0.72224,1.330862 h -8.73165 c -0.683472,0 -1.094724,-0.757809 -0.72224,-1.330862 l 1.853549,-2.851613 c 0.310443,-0.477604 -0.03231,-1.109191 -0.601942,-1.109191 -0.5302,0 -0.823031,-0.615235 -0.488687,-1.026728 z"
       id="path1213-4-6-0"
       sodipodi:nodetypes="sssssssssssss" />
    <path
       style="vector-effect:none;fill:#ff6666;fill-opacity:1;stroke:none;stroke-width:0.264583px;stroke-linecap:butt;stroke-linejoin:miter;stroke-miterlimit:4;stroke-dasharray:none;stroke-dashoffset:0;stroke-opacity:1"
       d="m 35.362354,36.248668 3.542394,-4.359801 c 0.403656,-0.496799 1.162004,-0.496793 1.565653,1.3e-5 l 3.54226,4.359775 c 0.334341,0.411503 0.0415,1.026741 -0.488704,1.026741 -0.569631,0 -0.912385,0.631587 -0.601942,1.109191 l 1.85355,2.851613 c 0.372485,0.573053 -0.03877,1.330862 -0.722241,1.330862 h -8.73165 c -0.683472,0 -1.094724,-0.757809 -0.72224,-1.330862 l 1.853549,-2.851613 c 0.310443,-0.477604 -0.03231,-1.109191 -0.601942,-1.109191 -0.5302,0 -0.823031,-0.615235 -0.488687,-1.026728 z"
       id="path1213-2-9-72-9-1"
       sodipodi:nodetypes="sssssssssssss" />
    <path
       style="vector-effect:none;fill:#ff6666;fill-opacity:1;stroke:none;stroke-width:0.264583px;stroke-linecap:butt;stroke-linejoin:miter;stroke-miterlimit:4;stroke-dasharray:none;stroke-dashoffset:0;stroke-opacity:1"
       d="m -6.9709792,36.248668 3.542394,-4.359801 c 0.403656,-0.496799 1.162004,-0.496793 1.565653,1.3e-5 l 3.542259,4.359775 c 0.334341,0.411503 0.0415,1.026741 -0.488703,1.026741 -0.56963201,0 -0.91238601,0.631587 -0.60194301,1.109191 L 2.4422318,41.2362 c 0.372484,0.573053 -0.03877,1.330862 -0.722241,1.330862 h -8.73165 c -0.683472,0 -1.094724,-0.757809 -0.72224,-1.330862 l 1.853549,-2.851613 c 0.310443,-0.477604 -0.03231,-1.109191 -0.601942,-1.109191 -0.5302,0 -0.823031,-0.615235 -0.488687,-1.026728 z"
       id="path1213-2-9-7-6-0-1"
       sodipodi:nodetypes="sssssssssssss" />
    <path
       style="vector-effect:none;fill:#ff6666;fill-opacity:1;stroke:none;stroke-width:0.264583px;stroke-linecap:butt;stroke-linejoin:miter;stroke-miterlimit:4;stroke-dasharray:none;stroke-dashoffset:0;stroke-opacity:1"
       d="m 14.195688,36.248668 3.542395,-4.359801 c 0.403656,-0.496799 1.162004,-0.496793 1.565652,1.3e-5 l 3.542261,4.359775 c 0.334341,0.411503 0.0415,1.026741 -0.488704,1.026741 -0.569631,0 -0.912385,0.631587 -0.601942,1.109191 l 1.853549,2.851613 c 0.372485,0.573053 -0.03877,1.330862 -0.72224,1.330862 h -8.731651 c -0.683472,0 -1.094724,-0.757809 -0.72224,-1.330862 l 1.853549,-2.851613 c 0.310444,-0.477604 -0.03231,-1.109191 -0.601942,-1.109191 -0.5302,0 -0.823031,-0.615235 -0.488687,-1.026728 z"
       id="path1213-5-3-5-2-0"
       sodipodi:nodetypes="sssssssssssss" />
    <path
       style="vector-effect:none;fill:#ff6666;fill-opacity:1;stroke:none;stroke-width:0.264583px;stroke-linecap:butt;stroke-linejoin:miter;stroke-miterlimit:4;stroke-dasharray:none;stroke-dashoffset:0;stroke-opacity:1"
       d="m 3.6123538,36.248668 3.542393,-4.359801 c 0.403656,-0.496799 1.162004,-0.496793 1.565652,1.3e-5 l 3.5422632,4.359775 c 0.334341,0.411503 0.0415,1.026741 -0.488704,1.026741 -0.569631,0 -0.912385,0.631587 -0.601942,1.109191 l 1.85355,2.851613 c 0.372485,0.573053 -0.03877,1.330862 -0.722241,1.330862 H 3.5716728 c -0.683471,0 -1.094724,-0.757809 -0.72224,-1.330862 l 1.85355,-2.851613 c 0.310442,-0.477604 -0.03231,-1.109191 -0.601943,-1.109191 -0.5302,0 -0.823031,-0.615235 -0.488686,-1.026728 z"
       id="path1213-1-1-6-5"
       sodipodi:nodetypes="sssssssssssss" />
    <path
       style="vector-effect:none;fill:#ff6666;fill-opacity:1;stroke:none;stroke-width:0.264583px;stroke-linecap:butt;stroke-linejoin:miter;stroke-miterlimit:4;stroke-dasharray:none;stroke-dashoffset:0;stroke-opacity:1"
       d="m 24.779022,36.248668 3.542394,-4.359801 c 0.403656,-0.496799 1.162004,-0.496793 1.565652,1.3e-5 l 3.542261,4.359775 c 0.334341,0.411503 0.0415,1.026741 -0.488704,1.026741 -0.569631,0 -0.912385,0.631587 -0.601942,1.109191 l 1.853549,2.851613 c 0.372485,0.573053 -0.03877,1.330862 -0.72224,1.330862 h -8.73165 c -0.683472,0 -1.094724,-0.757809 -0.72224,-1.330862 l 1.853549,-2.851613 c 0.310443,-0.477604 -0.03231,-1.109191 -0.601942,-1.109191 -0.5302,0 -0.823031,-0.615235 -0.488687,-1.026728 z"
       id="path1213-4-4-1-8-4"
       sodipodi:nodetypes="sssssssssssss" />
  </g>
</svg>
