<?xml version="1.0" encoding="UTF-8" standalone="no"?>
<!-- Created with Inkscape (http://www.inkscape.org/) -->

<svg
   width="45"
   height="45"
   viewBox="0 0 11.906249 11.90625"
   version="1.1"
   id="svg5"
   inkscape:version="1.1.1 (3bf5ae0d25, 2021-09-20)"
   sodipodi:docname="settings.svg"
   xmlns:inkscape="http://www.inkscape.org/namespaces/inkscape"
   xmlns:sodipodi="http://sodipodi.sourceforge.net/DTD/sodipodi-0.dtd"
   xmlns="http://www.w3.org/2000/svg"
   xmlns:svg="http://www.w3.org/2000/svg">
  <sodipodi:namedview
     id="namedview7"
     pagecolor="#ffffff"
     bordercolor="#666666"
     borderopacity="1.0"
     inkscape:pageshadow="2"
     inkscape:pageopacity="0.0"
     inkscape:pagecheckerboard="0"
     inkscape:document-units="mm"
     showgrid="true"
     inkscape:showpageshadow="false"
     showguides="false"
     inkscape:lockguides="false"
     units="px"
     inkscape:snap-bbox="true"
     inkscape:bbox-nodes="true"
     inkscape:guide-bbox="true"
     inkscape:object-paths="true"
     inkscape:zoom="2.872093"
     inkscape:cx="36.558705"
     inkscape:cy="26.113361"
     inkscape:window-width="1366"
     inkscape:window-height="705"
     inkscape:window-x="-8"
     inkscape:window-y="-8"
     inkscape:window-maximized="1"
     inkscape:current-layer="layer1">
    <inkscape:grid
       type="xygrid"
       id="grid832" />
    <sodipodi:guide
       position="5.8208328,5.8208333"
       orientation="0.70710678,-0.70710678"
       id="guide2143" />
  </sodipodi:namedview>
  <defs
     id="defs2">
    <inkscape:path-effect
       effect="fillet_chamfer"
       id="path-effect2539"
       is_visible="true"
       lpeversion="1"
       satellites_param="F,0,0,1,0,0,0,1 @ F,0,0,1,0,0,0,1 @ F,0,0,1,0,0,0,1 @ F,0,0,1,0,0,0,1 @ F,0,0,1,0,0,0,1 @ F,0,0,1,0,0.14924367,0,1 @ F,0,0,1,0,0.40103179,0,1 @ F,0,0,1,0,0,0,1 @ F,0,0,1,0,0.40103169,0,1 @ F,0,0,1,0,0.14924377,0,1 @ F,0,0,1,0,0,0,1 @ F,0,0,1,0,0,0,1 @ F,0,0,1,0,0,0,1 @ F,0,0,1,0,0,0,1 @ F,0,0,1,0,0,0,1 @ F,0,0,1,0,0,0,1 @ F,0,0,1,0,0,0,1 @ F,0,0,1,0,0,0,1 @ F,0,0,1,0,0,0,1 @ F,0,0,1,0,0.14924367,0,1 @ F,0,0,1,0,0.40103179,0,1 @ F,0,0,1,0,0,0,1 @ F,0,0,1,0,0.40103172,0,1 @ F,0,0,1,0,0.14924387,0,1 @ F,0,0,1,0,0,0,1 @ F,0,0,1,0,0,0,1 @ F,0,0,1,0,0,0,1 @ F,0,0,1,0,0,0,1 @ F,0,0,1,0,0,0,1 @ F,0,0,1,0,0,0,1 @ F,0,0,1,0,0,0,1 @ F,0,0,1,0,0,0,1 @ F,0,0,1,0,0,0,1 @ F,0,0,1,0,0.14925067,0,1 @ F,0,0,1,0,0.401025,0,1 @ F,0,0,1,0,0,0,1 @ F,0,0,1,0,0.401025,0,1 @ F,0,0,1,0,0.14925067,0,1 @ F,0,0,1,0,0,0,1 @ F,0,0,1,0,0,0,1 @ F,0,0,1,0,0,0,1 @ F,0,0,1,0,0,0,1 @ F,0,0,1,0,0,0,1 @ F,0,0,1,0,0,0,1 @ F,0,0,1,0,0,0,1 @ F,0,0,1,0,0,0,1 @ F,0,0,1,0,0,0,1 @ F,0,0,1,0,0.14705267,0,1 @ F,0,0,1,0,0.401031,0,1 @ F,0,0,1,0,0,0,1 @ F,0,0,1,0,0.401032,0,1 @ F,0,0,1,0,0.14705167,0,1 @ F,0,0,1,0,0,0,1 @ F,0,0,1,0,0,0,1 @ F,0,0,1,0,0,0,1 @ F,0,0,1,0,0,0,1"
       unit="px"
       method="auto"
       mode="F"
       radius="0"
       chamfer_steps="1"
       flexible="false"
       use_knot_distance="true"
       apply_no_radius="true"
       apply_with_radius="true"
       only_selected="false"
       hide_knots="false" />
    <inkscape:path-effect
       effect="fillet_chamfer"
       id="path-effect929"
       is_visible="true"
       lpeversion="1"
       satellites_param="F,0,0,1,0,0,0,1 @ F,0,0,1,0,1.515625,0,1 @ F,0,0,1,0,0.56640615,0,1 @ F,0,0,1,0,0,0,1 @ F,0,0,1,0,0,0,1 @ F,0,0,1,0,0,0,1 @ F,0,0,1,0,0,0,1 @ F,0,0,1,0,0,0,1 @ F,0,0,1,0,0.56640615,0,1 @ F,0,0,1,0,1.515625,0,1 @ F,0,0,1,0,0,0,1 @ F,0,0,1,0,1.515625,0,1 @ F,0,0,1,0,0.56640615,0,1 @ F,0,0,1,0,0,0,1 @ F,0,0,1,0,0,0,1 @ F,0,0,1,0,0,0,1 @ F,0,0,1,0,0,0,1 @ F,0,0,1,0,0,0,1 @ F,0,0,1,0,0.56640652,0,1 @ F,0,0,1,0,1.5156245,0,1 @ F,0,0,1,0,0,0,1 @ F,0,0,1,0,1.5156245,0,1 @ F,0,0,1,0,0.56640652,0,1 @ F,0,0,1,0,0,0,1 @ F,0,0,1,0,0,0,1 @ F,0,0,1,0,0,0,1 @ F,0,0,1,0,0,0,1 @ F,0,0,1,0,0,0,1 @ F,0,0,1,0,0.56640652,0,1 @ F,0,0,1,0,1.5156245,0,1 @ F,0,0,1,0,0,0,1 @ F,0,0,1,0,1.5156245,0,1 @ F,0,0,1,0,0.55664152,0,1 @ F,0,0,1,0,0,0,1 @ F,0,0,1,0,0,0,1 @ F,0,0,1,0,0,0,1 @ F,0,0,1,0,0,0,1 @ F,0,0,1,0,0,0,1 @ F,0,0,1,0,0.55664055,0,1 @ F,0,0,1,0,1.515625,0,1"
       unit="px"
       method="auto"
       mode="F"
       radius="0"
       chamfer_steps="1"
       flexible="false"
       use_knot_distance="true"
       apply_no_radius="true"
       apply_with_radius="true"
       only_selected="false"
       hide_knots="false" />
  </defs>
  <g
     inkscape:label="Capa 1"
     inkscape:groupmode="layer"
     id="layer1">
    <path
       id="path856"
       style="fill:#000000;fill-opacity:1;stroke-width:4.74361;paint-order:markers stroke fill"
       d="m 22.5,1 c -1.00735,-5e-8 -2.01355,0.074108 -3.009766,0.2167969 C 18.661762,1.3354602 18,2.1628963 18,3 V 4 C 18,4.3115278 17.754729,4.6257817 17.455078,4.7109375 16.07481,5.103187 14.744984,5.6538829 13.492188,6.3535156 13.219084,6.506032 12.820805,6.4575235 12.599609,6.2363281 L 11.892578,5.5292969 C 11.30069,4.9374089 10.247775,4.8222801 9.578125,5.3242188 8.7731151,5.9276169 8.0104018,6.5858771 7.296875,7.296875 6.5858782,8.0104048 5.9276184,8.7731144 5.3242188,9.578125 4.8222812,10.247773 4.9374085,11.30069 5.5292969,11.892578 l 0.7070312,0.707031 c 0.2211969,0.221197 0.2697028,0.619474 0.1171875,0.892579 -0.6996353,1.252799 -1.2503284,2.582619 -1.6425781,3.96289 C 4.6257837,17.754722 4.3115276,18 4,18 H 3 C 2.1628961,18 1.3354602,18.661758 1.2167969,19.490234 1.0741083,20.486449 0.99999985,21.492653 1,22.5 c 2e-7,1.007349 0.074108,2.013549 0.2167969,3.009766 C 1.3354599,26.338238 2.1628962,27 3,27 h 1 c 0.311528,0 0.6257816,0.245271 0.7109375,0.544922 0.3922494,1.380267 0.9429455,2.710095 1.6425781,3.96289 0.1525153,0.273105 0.1040094,0.671383 -0.1171875,0.892579 l -0.7070312,0.707031 c -0.591888,0.591888 -0.7070164,1.644803 -0.2050781,2.314453 0.6033977,0.805011 1.2616568,1.567724 1.9726562,2.28125 0.7135344,0.710992 1.4762412,1.369255 2.28125,1.972656 0.669646,0.50194 1.722565,0.386826 2.314453,-0.205078 l 0.707031,-0.707031 c 0.221197,-0.221178 0.619474,-0.269692 0.892579,-0.117188 1.252791,0.69963 2.582627,1.250329 3.96289,1.642578 C 17.754736,40.374221 18,40.688458 18,41 v 1 c 0,0.83709 0.661773,1.66454 1.490234,1.783203 C 20.486457,43.925895 21.492644,44.000008 22.5,44 c 1.007358,-8e-6 2.013541,-0.07411 3.009766,-0.216797 C 26.338225,43.664545 27,42.83709 27,42 v -1 c 0,-0.311542 0.245257,-0.625777 0.544922,-0.710938 1.380258,-0.392249 2.710102,-0.942947 3.96289,-1.642578 0.273105,-0.152504 0.671383,-0.104028 0.892579,0.117188 l 0.707031,0.707031 c 0.591888,0.591908 1.644803,0.707015 2.314453,0.205078 0.80501,-0.603398 1.567723,-1.261659 2.28125,-1.972656 0.710999,-0.713528 1.369258,-1.476239 1.972656,-2.28125 0.501937,-0.669648 0.386811,-1.722565 -0.205078,-2.314453 l -0.707031,-0.707031 c -0.217399,-0.217384 -0.265244,-0.608627 -0.115234,-0.876953 0.7043,-1.259783 1.259041,-2.597656 1.652343,-3.986329 C 40.384422,27.24179 40.693046,27 41,27 h 1 c 0.837102,0 1.664539,-0.66176 1.783203,-1.490234 C 43.925893,24.51355 44,23.507348 44,22.5 44,21.492652 43.925892,20.48645 43.783203,19.490234 43.66454,18.661761 42.837104,18 42,18 h -1 c -0.306952,0 -0.615576,-0.241785 -0.699219,-0.537109 -0.393302,-1.388671 -0.948044,-2.726548 -1.652343,-3.986329 -0.150014,-0.268325 -0.102146,-0.659571 0.115234,-0.876953 l 0.707031,-0.707031 C 40.062592,11.30069 40.177718,10.247775 39.675781,9.578125 39.072383,8.7731151 38.414122,8.0104018 37.703125,7.296875 36.989597,6.5858763 36.226886,5.9276177 35.421875,5.3242188 34.752227,4.8222816 33.69931,4.9374085 33.107422,5.5292969 L 32.400391,6.2363281 C 32.179195,6.4575235 31.780916,6.506032 31.507812,6.3535156 30.255013,5.6538813 28.925194,5.1031872 27.544922,4.7109375 27.245278,4.6257838 27,4.3115276 27,4 V 3 C 27,2.1628961 26.338242,1.3354603 25.509766,1.2167969 24.513552,1.0741081 23.507349,1.0000001 22.5,1 Z m 0,9 c 6.90356,-6e-7 12.500001,5.59644 12.5,12.5 10e-7,6.90356 -5.59644,12.500001 -12.5,12.5 -6.90356,10e-7 -12.5000006,-5.59644 -12.5,-12.5 -6e-7,-6.90356 5.59644,-12.5000006 12.5,-12.5 z"
       transform="scale(0.26458333)"
       sodipodi:nodetypes="ssssssssscssscssssssssssssscscccssssssssscccscsscsssssssssssssscssssssssssssss" />
  </g>
</svg>
